<?xml version="1.0" standalone="no"?><!DOCTYPE svg PUBLIC "-//W3C//DTD SVG 1.1//EN" "http://www.w3.org/Graphics/SVG/1.1/DTD/svg11.dtd"><svg t="1709791115610" class="icon" viewBox="0 0 1024 1024" version="1.1" xmlns="http://www.w3.org/2000/svg" p-id="7626" xmlns:xlink="http://www.w3.org/1999/xlink" width="200" height="200"><path d="M444.693333 111.594667l-6.848-7.274667c-35.328-36.544-72.512-52.181333-101.610666-30.272l-2.602667 2.133333c-26.965333 23.68-25.066667 79.018667-4.096 123.434667l2.197333 4.48-1.642666 4.778667c-10.453333 32.853333-4.949333 67.669333 16.853333 108.245333l2.944 5.248 3.413333 5.717333 3.968 6.250667 4.544 6.869333 8.021334 11.669334 46.4 64.768 10.090666 14.485333 9.173334 13.525333c2.944 4.373333 5.738667 8.64 8.426666 12.821334 13.781333 21.461333 24.533333 40.448 32.256 57.493333l9.002667 19.669333 10.304 22.101334 15.36 32.512 16.810667 34.922666 22.208 45.397334 13.610666 27.306666 13.525334 26.858667 8.874666 17.386667 15.061334 29.013333 10.837333 20.544 6.997333 13.013333 6.72 5.738667 9.664 17.344 6.186667 10.88 8.917333 15.296 5.696 9.472 5.482667 8.917333 5.269333 8.341334 5.056 7.765333 4.864 7.168c0.789333 1.130667 1.557333 2.261333 2.346667 3.349333l4.522667 6.293334 4.330666 5.653333 4.096 5.077333c6.677333 7.914667 22.122667 22.357333 26.944 25.024 14.848 8.192 35.392 16.554667 68.394667 18.24l11.882667 0.469334c6.08 0.192 12.309333 0.277333 18.688 0.277333l12.928-0.106667 13.226666-0.32c4.48-0.149333 8.96-0.32 13.504-0.533333l13.696-0.746667 13.845334-0.938666 6.954666-0.554667 13.952-1.216 13.952-1.408c4.629333-0.512 9.28-1.045333 13.866667-1.6l13.802667-1.749333 13.610666-1.92 6.72-1.024 13.248-2.154667c30.762667-5.226667 43.434667-49.578667 42.837334-118.506667l-0.213334-11.093333a640.149333 640.149333 0 0 0-0.170666-5.696l-0.533334-11.669333-0.746666-12.053334-0.426667-6.165333c-0.298667-3.84-0.64-7.68-0.96-11.498667l-1.109333-11.456-1.28-11.392-0.661334-5.653333-1.450666-11.178667-1.578667-10.944-1.685333-10.709333-1.770667-10.389333-1.877333-10.026667-1.962667-9.578667-2.026667-9.130666a447.146667 447.146667 0 0 0-1.045333-4.373334l-2.112-8.32c-5.696-21.397333-11.882667-36.394667-17.706667-40.490666-8.789333-6.165333-19.114667-8.362667-36.352-7.786667l-7.274666 0.362667-3.946667 0.277333-8.533333 0.768-9.429334 1.024-14.741333-0.704-7.317333 0.746667-6.208 0.533333-5.333334 0.298667-4.714666 0.128-1.856-0.042667-0.32-0.96c-12.842667-13.354667-21.674667-33.28-35.669334-55.594667L836.266667 544l-7.296-10.858667c-2.517333-3.690667-5.12-7.424-7.850667-11.221333l-8.384-11.605333a1018.133333 1018.133333 0 0 0-4.394667-5.930667l-9.173333-12.16c-3.157333-4.096-6.4-8.256-9.728-12.48l-10.24-12.864-10.752-13.226667-11.264-13.546666-11.754667-13.866667-12.266666-14.250667-12.736-14.570666-6.549334-7.424c-13.653333-15.381333-28.010667-31.189333-42.965333-47.381334l-21.354667-22.890666-22.464-23.573334-31.253333-32.32-23.146667-23.68-76.266666-77.162666-43.669334-43.52-8.042666-7.850667z" fill="#D38218" p-id="7627"></path><path d="M431.744 123.946667l-0.106667-0.149334 5.205334 5.034667 50.709333 50.56 60.117333 60.757333 20.864 21.269334 38.869334 40 18.090666 18.88 16.384 17.301333 4.992 5.333333c19.008 20.416 37.034667 40.192 54.016 59.306667l17.984 20.48 11.477334 13.290667 11.008 12.992 10.581333 12.672 10.133333 12.373333 9.685334 12.053333 9.216 11.733334 8.746666 11.413333 4.202667 5.589333 8.042667 10.901334 7.552 10.581333 7.061333 10.218667c4.544 6.698667 8.746667 13.162667 12.650667 19.392l5.546666 9.173333c11.52 19.413333 17.578667 32.298667 24.106667 44.629333l6.656 8.384 7.104 2.282667 4.309333 0.213333h4.522667l4.885333-0.170666 5.461334-0.362667 9.685333-0.896 19.370667-1.066667 8.917333-0.96 7.978667-0.704c2.496-0.213333 4.864-0.362667 7.082666-0.469333l6.272-0.213333c11.754667-0.128 18.922667 1.322667 23.637334 4.629333 1.365333 0.96 2.986667 4.117333 4.8 9.024l1.578666 4.629333 1.621334 5.418667 1.706666 6.186667 2.56 10.517333 2.624 11.882667 2.56 13.013333 2.517334 13.952 2.389333 14.72 2.197333 15.232 1.344 10.368 1.216 10.453333 1.6 15.722667 0.448 5.226667 0.853334 11.2 0.704 11.669333 0.256 5.696 0.384 11.093333c0.170667 7.253333 0.213333 14.229333 0.106666 20.906667l-0.256 9.792c-0.128 3.2-0.277333 6.293333-0.469333 9.322667l-0.661333 8.832-0.896 8.32c-0.149333 1.344-0.32 2.666667-0.512 3.968l-1.173334 7.530666c-4.48 25.429333-12.586667 40.810667-23.978666 42.752l-12.693334 2.048-12.992 1.92-6.570666 0.917334-13.290667 1.685333-13.44 1.536-6.72 0.704-13.504 1.28-13.482667 1.109333-6.72 0.490667-13.333333 0.853333-13.184 0.64-12.949333 0.469334-12.650667 0.256-12.330667 0.064-11.904-0.149334-11.456-0.362666-10.922666-0.576c-26.602667-1.728-41.472-9.344-52.970667-15.701334-2.944-1.621333-16.298667-14.08-20.650667-19.114666l-3.392-4.053334-3.626666-4.693333-3.861334-5.269333-4.117333-5.845334-4.330667-6.442666-4.565333-6.976-7.253333-11.52-5.098667-8.341334-8.021333-13.504-8.448-14.656-8.896-15.765333-6.144-11.093333-6.122667-4.693334-13.290667-24.96-10.389333-19.84-7.552-14.634666-13.333333-26.154667-6.741334-13.418667-15.786666-31.744-22.165334-45.226666-16.725333-34.794667-11.669333-24.576-13.930667-29.845333-8.96-19.584c-8.149333-17.962667-19.285333-37.674667-33.514667-59.818667-4.138667-6.4-8.469333-12.970667-13.12-19.84l-9.770666-14.165333-45.44-63.488-6.037334-8.533334-7.765333-11.306666-6.336-9.642667a302.08 302.08 0 0 1-1.813333-2.901333l-3.242667-5.376-2.730667-4.864c-21.354667-39.722667-25.045333-71.402667-12.8-101.312l1.685334-4.096-2.133334-3.882667c-21.76-39.893333-24.661333-93.610667-2.474666-110.336 21.013333-15.808 53.269333-0.341333 85.141333 35.264z" fill="#FFD217" p-id="7628"></path><path d="M431.744 123.946667l-0.106667-0.149334 5.205334 5.034667 50.709333 50.56 60.117333 60.757333 20.864 21.269334 38.869334 40 18.090666 18.88 21.376 22.656c19.008 20.394667 37.034667 40.170667 54.016 59.285333l17.984 20.48 11.477334 13.290667 11.008 12.992 10.581333 12.672 10.133333 12.373333 9.685334 12.053333 9.216 11.733334 12.949333 17.002666 8.042667 10.901334 7.552 10.581333 7.061333 10.218667c4.544 6.698667 8.746667 13.162667 12.650667 19.392l5.546666 9.173333 3.306667 5.632 5.76 10.24 4.842667 9.109333 10.197333 19.648 6.656 8.384 7.104 2.282667 4.309333 0.213333h4.522667l4.885333-0.170666 5.461334-0.362667 9.685333-0.896 19.370667-1.066667 8.917333-0.96 7.978667-0.704 7.082666-0.469333 6.272-0.213333c11.754667-0.128 18.922667 1.322667 23.637334 4.629333 1.365333 0.96 2.986667 4.117333 4.8 9.024l1.578666 4.629333 1.621334 5.418667 1.706666 6.186667 2.56 10.517333 2.624 11.882667 2.56 13.013333 2.517334 13.952 2.389333 14.72 2.197333 15.232 1.344 10.368 1.216 10.453333 2.048 20.949334 0.853334 11.2 0.96 17.365333 0.384 11.093333c0.170667 7.253333 0.213333 14.229333 0.106666 20.906667l-0.256 9.792c-0.128 3.2-0.277333 6.293333-0.469333 9.322667l-0.661333 8.832-0.896 8.32-0.512 3.968-1.173334 7.530666c-1.984 11.306667-4.693333 20.629333-8.106666 27.669334l-9.685334 1.365333-16.576 2.133333-13.418666 1.536-6.741334 0.704-13.504 1.28-16.853333 1.365334-16.682667 1.066666-13.184 0.661334-12.949333 0.469333-12.650667 0.256-12.309333 0.064-11.925333-0.149333-11.456-0.362667-10.922667-0.576c-26.602667-1.728-47.744-5.568-59.242667-11.946667-2.944-1.621333-6.613333-4.992-10.965333-10.026666l-3.392-4.053334-3.626667-4.693333-3.861333-5.269333-4.117333-5.845334-4.330667-6.421333-4.565333-6.997333-7.253334-11.52-5.098666-8.341334-8.021334-13.504-8.448-14.656-8.896-15.765333-6.144-11.093333-9.536-17.536-13.290666-24.96-10.368-19.84-7.573334-14.634667-13.312-26.154667-6.762666-13.397333-15.786667-31.744-22.144-45.226667-16.746667-34.816-11.648-24.576-13.930666-29.824-8.96-19.584c-8.149333-17.984-19.306667-37.696-33.536-59.84-4.117333-6.4-8.469333-12.970667-13.12-19.84l-9.770667-14.165333-45.44-63.466667-6.037333-8.554666-7.765334-11.306667-7.253333-11.093333-4.138667-6.826667-2.730666-4.864c-21.333333-39.722667-25.045333-71.402667-12.8-101.290667l1.685333-4.117333-2.133333-3.882667c-17.770667-32.618667-22.976-74.474667-12.138667-97.792 17.877333 2.986667 38.848 17.621333 59.648 40.874667z" fill="#FFE20D" p-id="7629"></path><path d="M400.106667 417.728c-48.234667 0-76.437333 7.296-105.109334 26.346667-1.92 1.28-3.84 2.602667-5.802666 3.989333l-5.994667 4.416-6.464 5.013333-3.456 2.794667-7.573333 6.229333-28.074667 23.893334-8.96 7.509333-14.741333 12.181333-12.693334 10.730667-13.226666 11.477333-13.866667 12.288c-4.736 4.266667-9.6 8.64-14.570667 13.184l-48.106666 44.757334-47.232 44.16-9.706667 8.746666-8.597333 7.530667-7.402667 6.272-6.144 4.949333-4.757333 3.584-2.389334 1.621334-0.917333 0.576-1.365333 0.64a1.365333 1.365333 0 0 1-0.405334 0.106666c-12.373333 0-19.029333 13.504-21.461333 38.613334l-0.554667 7.125333-0.362666 7.68a318.506667 318.506667 0 0 0-0.106667 4.074667l-0.064 8.533333c0 1.472 0 2.965333 0.042667 4.48l0.213333 9.344 0.362667 9.877333 0.533333 10.389334 0.704 10.922666 1.344 17.322667 1.6 17.685333 1.173333 11.498667 1.237334 11.264 2.005333 16.362667 2.154667 15.552 1.514666 9.813333 1.557334 9.322667 1.6 8.768 1.621333 8.170666 0.832 3.84 1.664 7.125334 1.664 6.4c2.816 10.026667 5.674667 16.682667 8.405333 18.88 12.416 9.898667 34.688-1.365333 62.336-24.213334l7.04-5.952 7.210667-6.4 7.445333-6.826666 7.594667-7.189334c2.88-2.773333 5.312-2.773333 11.498667 0.384l1.130666 0.64 5.76 3.541334 22.592 14.4 1.493334 0.917333c18.816 11.093333 37.589333 18.496 59.882666 22.058667 35.626667 5.717333 68.352-2.346667 104.746667-23.338667l15.146667-9.130667 7.957333-5.162666 9.493333-6.762667 22.101334-16.704 30.08-23.061333 3.477333-2.730667 7.125333-5.866667c1.194667-1.002667 2.389333-2.026667 3.562667-3.072l7.04-6.229333 6.72-6.144 8.938667-8.448 8.576-8.490667 3.093333-3.242666 0.469333-0.341334 0.512-0.192 0.618667-0.042666 0.853333 0.170666a8.32 8.32 0 0 1 0.512 0.170667l1.322667 0.554667 1.770667 0.874666 5.269333 2.901334 16.64 9.728c49.664 29.269333 136.064-2.794667 163.882667-53.909334 25.493333-46.890667-3.626667-128.746667-75.2-219.008l-8.277334-10.389333-10.304-13.354667-36.330666-47.68-8.981334-11.626666-7.402666-9.322667-3.733334-4.48a79.488 79.488 0 0 0-1.429333-1.642667c-27.157333-29.888-54.250667-41.429333-102.357333-41.429333z" fill="#D38218" p-id="7630"></path><path d="M400.106667 435.882667c43.370667 0 65.792 9.536 89.514666 35.690666l1.301334 1.472 5.482666 6.677334 13.12 16.853333 40.512 53.141333 9.152 11.754667 1.706667 2.176c70.613333 87.210667 99.136 165.077333 77.866667 204.117333-23.253333 42.837333-99.178667 70.997333-139.818667 47.04l-13.098667-7.68-5.205333-2.965333-4.394667-2.410667-3.754666-1.877333a61.824 61.824 0 0 0-1.642667-0.768l-2.901333-1.152a12.629333 12.629333 0 0 0-7.552-0.704l-1.813334 0.64-1.856 0.96-1.984 1.258667-2.24 1.493333-17.066666 16.576-7.04 6.613333-7.530667 6.826667-7.68 6.698667-5.056 4.224-4.906667 3.882666-45.248 34.602667-13.333333 9.749333-6.528 4.394667-4.437333 2.773333-7.850667 4.8c-35.498667 21.546667-65.898667 29.76-98.922667 24.469334-19.968-3.2-36.757333-9.813333-53.845333-19.904l-8.469333-5.333334-17.621334-11.242666-4.330666-2.602667a36.544 36.544 0 0 0-1.472-0.810667c-12.096-6.208-22.250667-6.101333-31.274667 2.581334l-6.165333 5.781333-6.229334 5.653333-6.250666 5.44-6.186667 5.205334-9.045333 7.253333-5.76 4.373333-5.44 3.968-5.077334 3.498667-4.629333 2.986667c-7.338667 4.48-12.522667 6.613333-14.122667 5.333333a2.88 2.88 0 0 1-0.64-1.002667l-0.746666-2.069333-0.874667-3.093333-0.981333-4.053334-2.218667-10.581333-2.453333-13.525333-1.92-11.712-2.602667-17.258667-1.92-13.866667-2.368-19.285333-1.621333-14.741333-1.408-14.741334-0.896-10.858666-0.725334-10.538667-0.576-10.197333-0.426666-9.792-0.32-9.386667-0.213334-13.141333v-11.946667l0.170667-7.232 0.234667-6.592 0.341333-5.909333 0.405333-5.184 0.213334-2.304 0.533333-4.053334 0.576-3.2c0.597333-2.773333 1.28-4.266667 2.005333-4.266666 3.818667 0 8.448-1.898667 14.762667-6.101334l4.010667-2.816 4.437333-3.392 4.906667-3.989333 5.44-4.586667 5.973333-5.248 15.317333-13.824 84.672-79.146666 9.173334-8.405334 14.4-13.013333c2.346667-2.112 4.650667-4.181333 6.933333-6.186667l13.376-11.754666 6.464-5.568 12.522667-10.581334 14.784-12.202666 36.992-31.36 7.253333-5.994667a452.266667 452.266667 0 0 1 3.328-2.666667l6.144-4.8c3.904-2.965333 7.509333-5.525333 11.093333-7.893333 25.6-17.002667 50.496-23.445333 95.573334-23.445333z" fill="#FFD217" p-id="7631"></path><path d="M400.106667 435.882667c16.064 0 29.269333 1.301333 40.725333 4.288 4.586667 3.84 9.088 8.234667 13.653333 13.248l1.28 1.493333 5.461334 6.656 13.12 16.853333 40.533333 53.162667 10.88 13.909333c70.592 87.210667 99.093333 165.077333 77.866667 204.138667-20.885333 38.357333-83.989333 64.96-126.122667 52.864l-1.28-0.746667-3.733333-1.877333-1.642667-0.768-2.901333-1.152a19.221333 19.221333 0 0 0-3.328-0.853333l-0.832-0.426667-13.12-7.68-5.184-2.986667-4.416-2.389333-4.565334-2.282667-3.733333-1.514666a12.629333 12.629333 0 0 0-7.552-0.704l-1.813333 0.64-1.856 0.96-1.984 1.237333-2.218667 1.514667-17.066667 16.576-7.04 6.592-7.530666 6.826666-7.68 6.72-5.056 4.202667-4.906667 3.882667-45.248 34.624-13.333333 9.728-6.528 4.394666-4.437334 2.794667-7.850666 4.778667c-35.52 21.546667-65.92 29.76-98.922667 24.469333a146.069333 146.069333 0 0 1-20.608-4.821333l-6.549333-2.261334-17.621334-11.242666-4.330666-2.602667-1.472-0.810667a37.12 37.12 0 0 0-12.842667-4.202666l-16.512-10.538667L106.666667 869.546667l-0.682667-0.362667c-12.117333-6.186667-22.250667-6.08-31.296 2.602667l-6.144 5.76-6.229333 5.653333-6.250667 5.461333-6.186667 5.205334-9.045333 7.253333-7.509333 5.632-2.197334-13.376-2.602666-17.258667-1.92-13.866666-2.368-19.285334-1.621334-14.741333-1.408-14.741333-0.896-10.858667-0.725333-10.538667-0.576-10.197333-0.426667-9.792-0.32-9.386667-0.213333-13.141333v-11.946667l0.170667-7.232 0.234666-6.592 0.341334-5.909333 0.64-7.488 0.512-4.053333 0.576-3.2c0.597333-2.773333 1.28-4.266667 2.005333-4.266667 3.818667 0 8.448-1.898667 14.762667-6.101333l4.010666-2.816 4.437334-3.392 4.906666-3.989334 5.44-4.586666 5.973334-5.248 15.317333-13.824 84.672-79.146667 9.173333-8.405333 14.4-13.013334 6.933334-6.186666 13.376-11.754667 6.464-5.568 12.522666-10.581333 14.784-12.202667 36.992-31.36 7.253334-5.994667 3.328-2.666666 6.144-4.8c3.904-2.965333 7.509333-5.525333 11.093333-7.893334 25.6-17.002667 50.496-23.445333 95.573333-23.445333z" fill="#FFE20D" p-id="7632"></path><path d="M435.114667 626.261333c41.706667-12.821333 69.824 12.608 84.992 51.477334a9.173333 9.173333 0 0 1-4.885334 11.818666 8.704 8.704 0 0 1-11.434666-5.034666c-12.202667-31.274667-33.173333-50.24-63.658667-40.874667-34.688 10.666667-34.325333 66.773333 1.301333 110.549333l32.768 38.4 4.074667 4.565334 3.477333 3.712 3.072 3.029333 2.837334 2.517333c4.032 3.413333 8.064 5.909333 13.76 8.533334l2.24 1.002666 5.162666 2.133334a9.173333 9.173333 0 0 1 5.034667 11.733333 8.704 8.704 0 0 1-11.349333 5.205333 167.744 167.744 0 0 1-8.277334-3.52 74.624 74.624 0 0 1-17.706666-11.029333 110.037333 110.037333 0 0 1-10.026667-9.770667l-4.949333-5.504-30.485334-35.626666c-45.568-52.608-47.210667-127.573333 4.053334-143.317334z" fill="#D38218" p-id="7633"></path><path d="M392.213333 761.066667c-15.850667 8.042667-22.058667 17.344-27.861333 36.330666l-2.496 8.554667c-3.2 10.773333-26.666667 99.946667-60.010667 109.418667-12.8 3.626667 32.554667-6.442667 40.896 0 16.789333 12.928 72.533333 2.389333 99.712-19.541334 33.685333-27.178667 50.325333-68.16 31.701334-98.581333-23.381333-38.229333-48.746667-53.056-81.941334-36.181333z" fill="#D38218" p-id="7634"></path><path d="M459.306667 806.933333c12.650667 20.693333-0.234667 52.437333-27.690667 74.602667-11.050667 8.917333-28.309333 15.936-46.250667 19.328-15.488 2.922667-34.304 0.192-36.48-3.306667-4.245333-6.784 21.354667-48.874667 25.834667-72.96 4.48-24.064 13.845333-41.450667 25.258667-47.253333 23.082667-11.733333 40.128-1.770667 59.306666 29.589333z" fill="#FFD217" p-id="7635"></path><path d="M452.202667 796.202667l2.133333 3.029333c1.642667 2.410667 3.285333 4.970667 4.949333 7.701333 12.672 20.693333-0.213333 52.437333-27.669333 74.602667-11.050667 8.917333-28.309333 15.936-46.250667 19.328a79.168 79.168 0 0 1-16.256 1.194667c1.258667-3.221333 2.816-6.848 4.522667-10.730667l8.234667-18.581333c4.629333-10.666667 8.853333-21.461333 10.453333-29.994667 4.48-24.085333 13.824-41.450667 25.237333-47.253333 12.970667-6.613333 24.042667-6.336 34.645334 0.704z" fill="#FFE20D" p-id="7636"></path><path d="M334.336 204.074667c27.349333-27.456 72.149333-4.608 113.92 43.178666l9.322667 10.88 10.730666 12.096 12.330667 13.589334 9.024 9.770666 19.626667 20.970667 21.333333 22.4 17.493333 18.048c24.064 24.746667 49.472 50.282667 73.450667 73.728 3.52 3.434667 3.690667 9.173333 0.341333 12.8a8.597333 8.597333 0 0 1-12.416 0.362667c-12.074667-11.776-24.490667-24.106667-36.906666-36.565334l-18.133334-18.304-22.570666-23.082666-16.384-17.002667-20.8-21.824-19.114667-20.458667-12.949333-14.101333-11.562667-12.842667-6.826667-7.765333-6.016-7.018667c-36.501333-43.050667-74.325333-63.232-91.648-45.866666a8.597333 8.597333 0 0 1-12.416-0.170667 9.28 9.28 0 0 1 0.170667-12.821333zM649.386667 700.16a8.618667 8.618667 0 0 1 12.16 2.666667l6.912 10.88 6.656 10.24 6.357333 9.536 6.122667 8.874666c3.008 4.266667 5.930667 8.32 8.746666 12.138667l5.589334 7.296c28.352 36.16 49.28 48.021333 74.197333 44.586667a8.853333 8.853333 0 0 1 9.877333 7.786666 9.024 9.024 0 0 1-7.552 10.197334c-33.024 4.565333-58.496-10.069333-91.690666-53.056l-6.101334-8.149334a546.602667 546.602667 0 0 1-6.314666-8.746666l-6.528-9.429334a809.813333 809.813333 0 0 1-3.349334-4.949333l-6.869333-10.432-7.125333-11.093333-3.690667-5.802667a9.258667 9.258667 0 0 1 2.602667-12.544z" fill="#D38218" p-id="7637"></path></svg>